<?xml version="1.0" encoding="UTF-8"?>
<svg version="1.1" xmlns="http://www.w3.org/2000/svg" width="128" height="128">
<path d="M0 0 C1.2060791 0.00132935 1.2060791 0.00132935 2.43652344 0.00268555 C10.01784326 0.15415816 15.04189335 2.16942668 21.25 6.4375 C24.13677035 7.68326708 24.13677035 7.68326708 26.44140625 6.515625 C27.99006689 5.64817093 29.5136216 4.73383308 31.00390625 3.76953125 C38.67518443 -0.9933319 47.49760476 -0.54924985 56.25 0.375 C64.63876744 2.37011615 71.68832941 6.77640778 77.25 13.375 C80.63328707 19.08899594 82.38027057 24.7878558 82.36352539 31.41894531 C82.36341209 32.92004852 82.36341209 32.92004852 82.36329651 34.45147705 C82.35813522 35.52452087 82.35297394 36.5975647 82.34765625 37.703125 C82.3462413 38.80726746 82.34482635 39.91140991 82.34336853 41.04901123 C82.33777258 44.57436842 82.32522079 48.09966202 82.3125 51.625 C82.30748448 54.01562408 82.30292166 56.40624916 82.29882812 58.796875 C82.28780447 64.65627168 82.27107033 70.5156313 82.25 76.375 C79.28 76.375 76.31 76.375 73.25 76.375 C73.25 79.675 73.25 82.975 73.25 86.375 C70.94 86.375 68.63 86.375 66.25 86.375 C66.25 83.075 66.25 79.775 66.25 76.375 C63.28 76.375 60.31 76.375 57.25 76.375 C57.220271 74.68141357 57.220271 74.68141357 57.18994141 72.95361328 C57.1132675 68.72277339 57.02465086 64.49225007 56.93261719 60.26171875 C56.89458059 58.43854063 56.85968594 56.61529391 56.828125 54.79199219 C57.48672343 38.0740671 57.48672343 38.0740671 51.25 23.375 C48.31364585 22.29318531 46.66927252 22.27517321 43.625 23 C40.58808883 24.75821173 39.67282953 26.17363355 38.25 29.375 C37.37895348 34.33886063 37.05615962 39.2485242 36.93359375 44.27734375 C36.9024221 45.36119102 36.9024221 45.36119102 36.87062073 46.4669342 C36.80584574 48.7487037 36.7465797 51.03057667 36.6875 53.3125 C36.64424603 54.87045291 36.60062969 56.4283958 36.55664062 57.98632812 C36.44956539 61.7824482 36.34995967 65.57865938 36.25 69.375 C40.87 69.375 45.49 69.375 50.25 69.375 C49.18662259 73.62850964 47.39967201 76.09464754 44.75 79.4375 C41.44985938 83.5787357 41.44985938 83.5787357 39.25 88.375 C38.59 88.045 37.93 87.715 37.25 87.375 C37.02183594 88.05949219 36.79367188 88.74398437 36.55859375 89.44921875 C34.92213737 93.10804212 32.75305859 96.02850858 30.3125 99.1875 C29.86970703 99.78498047 29.42691406 100.38246094 28.97070312 100.99804688 C27.8054393 102.51757869 26.5336376 103.9540527 25.25 105.375 C24.26 105.375 23.27 105.375 22.25 105.375 C20.671875 103.6784668 20.671875 103.6784668 19 101.32421875 C18.3915625 100.48052734 17.783125 99.63683594 17.15625 98.76757812 C16.21265625 97.42856445 16.21265625 97.42856445 15.25 96.0625 C14.00220969 94.31482648 12.75229072 92.56867034 11.5 90.82421875 C10.94828125 90.04393311 10.3965625 89.26364746 9.828125 88.4597168 C8.40116883 86.57469534 7.04247251 84.91540606 5.25 83.375 C4.59 83.375 3.93 83.375 3.25 83.375 C3.188125 82.67375 3.12625 81.9725 3.0625 81.25 C2.25372755 78.38818978 1.5948492 77.40519684 -0.3125 75.25 C-2.75 72.375 -2.75 72.375 -2.75 69.375 C1.87 69.375 6.49 69.375 11.25 69.375 C11.18061932 64.554768 11.09241623 59.73536228 10.98754883 54.91577148 C10.95451025 53.27979786 10.9264143 51.64371601 10.90356445 50.00756836 C11.3396816 35.65485862 11.3396816 35.65485862 5.25 23.375 C2.34702584 22.43349487 0.60717066 22.28995937 -2.375 23 C-5.41191117 24.75821173 -6.32717047 26.17363355 -7.75 29.375 C-8.74231873 34.85987146 -8.95573836 40.25402611 -9.06640625 45.80859375 C-9.08718735 46.68653091 -9.10796844 47.56446808 -9.12937927 48.4690094 C-9.19431945 51.25009985 -9.25349927 54.03127785 -9.3125 56.8125 C-9.35573814 58.70769104 -9.39935405 60.6028735 -9.44335938 62.49804688 C-9.54994322 67.12361013 -9.65136408 71.74926071 -9.75 76.375 C-12.72 76.375 -15.69 76.375 -18.75 76.375 C-18.75 79.675 -18.75 82.975 -18.75 86.375 C-21.06 86.375 -23.37 86.375 -25.75 86.375 C-25.75 83.075 -25.75 79.775 -25.75 76.375 C-28.72 76.375 -31.69 76.375 -34.75 76.375 C-34.84947585 69.45568959 -34.92175527 62.5368029 -34.96972656 55.61694336 C-34.98974175 53.26693462 -35.01696244 50.91697504 -35.05175781 48.56713867 C-35.10072124 45.17354133 -35.12307059 41.78060704 -35.140625 38.38671875 C-35.16127014 37.34980392 -35.18191528 36.3128891 -35.20318604 35.24455261 C-35.2061892 25.30233848 -32.78675933 16.42874689 -25.8125 9.09375 C-22.17630515 6.06358763 -18.09728263 4.1782137 -13.75 2.375 C-13.00492188 2.00890625 -12.25984375 1.6428125 -11.4921875 1.265625 C-7.64457122 0.01597185 -4.02328872 -0.00788717 0 0 Z " fill="#48ACD5" transform="translate(40.75,9.625)"/>
<path d="M0 0 C11.33242556 2.59335603 19.00338562 6.38107391 26.1328125 15.69921875 C26.66841797 16.71435547 26.66841797 16.71435547 27.21484375 17.75 C26.71984375 19.235 26.71984375 19.235 26.21484375 20.75 C25.82296875 20.275625 25.43109375 19.80125 25.02734375 19.3125 C22.71404622 17.31827799 21.25124078 16.9668855 18.21484375 16.75 C14.93945276 17.529855 13.57552812 18.29914454 11.46484375 20.9375 C8.78618529 26.96448154 9.02784038 33.68869193 8.8984375 40.18359375 C8.8776564 41.06153091 8.85687531 41.93946808 8.83546448 42.8440094 C8.7705243 45.62509985 8.71134448 48.40627785 8.65234375 51.1875 C8.60910561 53.08269104 8.5654897 54.9778735 8.52148438 56.87304688 C8.41490053 61.49861013 8.31347967 66.12426071 8.21484375 70.75 C5.24484375 70.75 2.27484375 70.75 -0.78515625 70.75 C-0.78515625 74.05 -0.78515625 77.35 -0.78515625 80.75 C-3.09515625 80.75 -5.40515625 80.75 -7.78515625 80.75 C-7.78515625 77.45 -7.78515625 74.15 -7.78515625 70.75 C-10.75515625 70.75 -13.72515625 70.75 -16.78515625 70.75 C-16.8846321 63.83068959 -16.95691152 56.9118029 -17.00488281 49.99194336 C-17.024898 47.64193462 -17.05211869 45.29197504 -17.08691406 42.94213867 C-17.13587749 39.54854133 -17.15822684 36.15560704 -17.17578125 32.76171875 C-17.19642639 31.72480392 -17.21707153 30.6878891 -17.23834229 29.61955261 C-17.24148129 19.22762816 -14.61182699 10.96075417 -7.46875 3.30859375 C-3.55054297 -0.31870231 -3.55054297 -0.31870231 0 0 Z " fill="#1491C6" transform="translate(22.78515625,15.25)"/>
<path d="M0 0 C6.6021232 8.2484965 7.29519079 16.38844097 7.1953125 26.62109375 C7.1924826 27.72099136 7.18965271 28.82088898 7.18673706 29.95411682 C7.1755898 33.44869103 7.15049498 36.94300394 7.125 40.4375 C7.11496316 42.81444941 7.10583854 45.19140286 7.09765625 47.56835938 C7.07566827 53.37900611 7.04117582 59.18945883 7 65 C4.03 65 1.06 65 -2 65 C-2 68.3 -2 71.6 -2 75 C-4.31 75 -6.62 75 -9 75 C-9 71.7 -9 68.4 -9 65 C-11.97 65 -14.94 65 -18 65 C-18.01981934 63.87094238 -18.03963867 62.74188477 -18.06005859 61.57861328 C-18.1367325 57.34777339 -18.22534914 53.11725007 -18.31738281 48.88671875 C-18.35541941 47.06354063 -18.39031406 45.24029391 -18.421875 43.41699219 C-17.76327657 26.6990671 -17.76327657 26.6990671 -24 12 C-27.02402766 10.88588454 -28.53829308 10.85709072 -31.625 11.8125 C-34.16925573 13.02325651 -34.16925573 13.02325651 -37 15 C-35.96856058 8.91993603 -30.94292351 4.89041206 -26.6875 0.75 C-22.69888397 -1.84723834 -18.48205445 -3.44322826 -14 -5 C-12.96875 -5.37125 -11.9375 -5.7425 -10.875 -6.125 C-6.13849995 -5.91906522 -3.28532233 -3.25145303 0 0 Z " fill="#1491C6" transform="translate(116,21)"/>
<path d="M0 0 C0.79051758 0.00539795 1.58103516 0.0107959 2.39550781 0.01635742 C9.88769778 0.21193357 14.92928825 2.28341692 21.0625 6.5 C23.94927035 7.74576708 23.94927035 7.74576708 26.25390625 6.578125 C27.80256689 5.71067093 29.3261216 4.79633308 30.81640625 3.83203125 C36.1375937 0.52826791 40.61698346 0.05104712 46.75 0.0625 C47.54784912 0.06266113 48.34569824 0.06282227 49.16772461 0.06298828 C55.29386963 0.18126565 60.81259086 1.03684964 66.0625 4.4375 C66.5575 5.4275 66.5575 5.4275 67.0625 6.4375 C61.4375 6.6875 61.4375 6.6875 58.0625 4.4375 C55.73335177 4.07608045 53.39996522 3.74050475 51.0625 3.4375 C50.5675 2.9425 50.5675 2.9425 50.0625 2.4375 C47.34115971 2.73218657 44.69431304 3.10123767 42 3.5625 C41.22446777 3.69503174 40.44893555 3.82756348 39.64990234 3.96411133 C33.81341136 5.06759788 29.8671144 6.88208534 25.0625 10.4375 C24.0725 10.4375 23.0825 10.4375 22.0625 10.4375 C22.0625 9.7775 22.0625 9.1175 22.0625 8.4375 C19.5875 7.9425 19.5875 7.9425 17.0625 7.4375 C17.0625 6.7775 17.0625 6.1175 17.0625 5.4375 C7.30482908 3.77155619 -1.04976302 2.55124407 -10.75 4.92578125 C-13.79466272 5.63801485 -16.83731263 6.0417314 -19.9375 6.4375 C-14.63021969 0.61730133 -7.4581423 -0.09779867 0 0 Z " fill="#7FC4E1" transform="translate(40.9375,9.5625)"/>
<path d="M0 0 C3.96 0 7.92 0 12 0 C12 3.63 12 7.26 12 11 C8.04 11 4.08 11 0 11 C0 7.37 0 3.74 0 0 Z " fill="#006691" transform="translate(104,108)"/>
<path d="M0 0 C3.96 0 7.92 0 12 0 C12 3.63 12 7.26 12 11 C8.04 11 4.08 11 0 11 C0 7.37 0 3.74 0 0 Z " fill="#006590" transform="translate(91,108)"/>
<path d="M0 0 C3.96 0 7.92 0 12 0 C12 3.63 12 7.26 12 11 C8.04 11 4.08 11 0 11 C0 7.37 0 3.74 0 0 Z " fill="#006691" transform="translate(25,108)"/>
<path d="M0 0 C3.96 0 7.92 0 12 0 C12 3.63 12 7.26 12 11 C8.04 11 4.08 11 0 11 C0 7.37 0 3.74 0 0 Z " fill="#006691" transform="translate(12,108)"/>
<path d="M0 0 C3.63 0 7.26 0 11 0 C11 3.63 11 7.26 11 11 C7.37 11 3.74 11 0 11 C0 7.37 0 3.74 0 0 Z " fill="#006691" transform="translate(117,108)"/>
<path d="M0 0 C3.63 0 7.26 0 11 0 C11 3.63 11 7.26 11 11 C7.37 11 3.74 11 0 11 C0 7.37 0 3.74 0 0 Z " fill="#006590" transform="translate(0,108)"/>
<path d="M0 0 C3.63 0.33 7.26 0.66 11 1 C11 4.3 11 7.6 11 11 C7.7 11 4.4 11 1 11 C0.67 7.37 0.34 3.74 0 0 Z " fill="#0A7CAB" transform="translate(93,96)"/>
<path d="M0 0 C3.3 0.33 6.6 0.66 10 1 C10 4.3 10 7.6 10 11 C6.7 11 3.4 11 0 11 C0 7.37 0 3.74 0 0 Z " fill="#0B7DAD" transform="translate(2,96)"/>
<path d="M0 0 C3.3 0 6.6 0 10 0 C10 3.3 10 6.6 10 10 C6.7 10 3.4 10 0 10 C0 6.7 0 3.4 0 0 Z " fill="#0A7BA9" transform="translate(116,97)"/>
<path d="M0 0 C3.3 0 6.6 0 10 0 C10 3.3 10 6.6 10 10 C6.7 10 3.4 10 0 10 C0 6.7 0 3.4 0 0 Z " fill="#0A7AA9" transform="translate(105,97)"/>
<path d="M0 0 C3.3 0 6.6 0 10 0 C10 3.3 10 6.6 10 10 C6.7 10 3.4 10 0 10 C0 6.7 0 3.4 0 0 Z " fill="#0A7BAA" transform="translate(24,97)"/>
<path d="M0 0 C3.3 0 6.6 0 10 0 C10 3.3 10 6.6 10 10 C6.7 10 3.4 10 0 10 C0 6.7 0 3.4 0 0 Z " fill="#0A7AA9" transform="translate(13,97)"/>
<path d="M0 0 C3.3 0.33 6.6 0.66 10 1 C10 3.97 10 6.94 10 10 C7.03 10 4.06 10 1 10 C0.67 6.7 0.34 3.4 0 0 Z " fill="#0F87B9" transform="translate(96,86)"/>
<path d="M0 0 C1.6415049 3.2830098 0.51888624 6.42545033 0 10 C-2.97 10 -5.94 10 -9 10 C-9 7.03 -9 4.06 -9 1 C-4.545 0.505 -4.545 0.505 0 0 Z " fill="#0F87B9" transform="translate(32,86)"/>
<path d="M0 0 C0 3.3 0 6.6 0 10 C-2.97 10 -5.94 10 -9 10 C-9 7.03 -9 4.06 -9 1 C-1.125 0 -1.125 0 0 0 Z " fill="#0F88BA" transform="translate(124,86)"/>
<path d="M0 0 C2.97 0.33 5.94 0.66 9 1 C9 3.97 9 6.94 9 10 C6.03 10 3.06 10 0 10 C0 6.7 0 3.4 0 0 Z " fill="#0F88BA" transform="translate(5,86)"/>
<path d="M0 0 C1.65 1.65 3.3 3.3 5 5 C4.67 5.99 4.34 6.98 4 8 C3.5875 7.54625 3.175 7.0925 2.75 6.625 C0.93591905 4.94049626 -0.75285627 4.00734029 -3 3 C-2.01 3 -1.02 3 0 3 C0 2.01 0 1.02 0 0 Z " fill="#0B7DAC" transform="translate(45,28)"/>
<path d="M0 0 C0.33 0.66 0.66 1.32 1 2 C1.99 2.66 2.98 3.32 4 4 C3.236875 4.28875 2.47375 4.5775 1.6875 4.875 C-1.15029308 5.96269013 -1.15029308 5.96269013 -4 8 C-3.40072174 4.64404172 -2.15377564 2.62198774 0 0 Z " fill="#0C7EAD" transform="translate(83,28)"/>
</svg>
